<?xml version="1.0" standalone="no"?>
<!DOCTYPE svg PUBLIC "-//W3C//DTD SVG 20010904//EN"
 "http://www.w3.org/TR/2001/REC-SVG-20010904/DTD/svg10.dtd">
<svg version="1.0" xmlns="http://www.w3.org/2000/svg"
 width="512.000000pt" height="512.000000pt" viewBox="0 0 512.000000 512.000000"
 preserveAspectRatio="xMidYMid meet">
<metadata>
Created by potrace 1.11, written by Peter Selinger 2001-2013
</metadata>
<g transform="translate(0.000000,512.000000) scale(0.100000,-0.100000)"
fill="#000000" stroke="none">
<path d="M2390 5114 c-273 -21 -586 -95 -830 -199 -300 -126 -601 -334 -836
-576 -394 -407 -626 -893 -705 -1479 -17 -122 -17 -478 0 -600 79 -583 310
-1068 701 -1474 983 -1018 2597 -1048 3614 -66 142 137 247 264 358 430 95
143 217 380 267 520 282 788 184 1621 -270 2304 -410 618 -1046 1016 -1789
1121 -107 15 -410 26 -510 19z m470 -855 c162 -468 298 -855 301 -860 3 -6
310 -16 765 -24 417 -8 827 -18 910 -23 l151 -7 -724 -548 c-397 -302 -723
-554 -723 -561 0 -6 117 -398 260 -871 143 -472 258 -861 256 -863 -3 -2 -338
228 -745 512 -408 284 -746 516 -751 516 -4 0 -342 -232 -750 -516 -408 -284
-743 -514 -745 -512 -3 2 112 391 255 863 143 473 260 865 260 871 0 7 -326
259 -724 561 -398 301 -722 549 -721 551 1 1 411 11 910 22 546 11 911 23 914
29 3 5 139 392 301 860 162 468 297 851 300 851 3 0 138 -383 300 -851z"/>
</g>
</svg>
